<?xml version="1.0" standalone="no"?>
<!DOCTYPE svg PUBLIC "-//W3C//DTD SVG 20010904//EN"
 "http://www.w3.org/TR/2001/REC-SVG-20010904/DTD/svg10.dtd">
<svg version="1.0" xmlns="http://www.w3.org/2000/svg"
 width="2048.000000pt" height="2048.000000pt" viewBox="0 0 2048.000000 2048.000000"
 preserveAspectRatio="xMidYMid meet">

<g transform="translate(0.000000,2048.000000) scale(0.100000,-0.100000)"
fill="#002CFF" stroke="none">
<circle cx="10240" cy="10240" r="10000" fill="white" />
<path d="M9930 20477 c-3 -2 -72 -7 -155 -11 -391 -17 -851 -63 -1170 -117
-307 -52 -755 -147 -920 -195 -27 -8 -124 -35 -215 -60 -409 -113 -966 -311
-1341 -477 -171 -76 -438 -201 -494 -232 -22 -12 -94 -50 -160 -85 -779 -409
-1507 -919 -2140 -1501 -179 -165 -549 -537 -700 -704 -323 -358 -623 -746
-905 -1167 -191 -287 -209 -315 -415 -673 -426 -743 -779 -1630 -1014 -2555
-125 -492 -233 -1164 -270 -1685 -6 -82 -13 -181 -16 -220 -10 -139 -13 -854
-4 -1025 20 -389 90 -1044 128 -1215 5 -22 17 -85 26 -140 16 -93 40 -215 86
-430 46 -213 197 -763 248 -900 4 -11 20 -58 36 -105 87 -266 253 -690 367
-940 12 -25 50 -108 85 -185 75 -164 232 -469 333 -645 267 -467 417 -699 701
-1081 603 -814 1350 -1550 2214 -2182 281 -205 597 -407 985 -630 296 -170
891 -454 1250 -597 580 -231 1300 -438 1910 -549 513 -93 780 -123 1437 -161
499 -29 1364 15 1878 95 954 149 1599 328 2510 698 572 232 1155 548 1790 970
332 221 750 547 1090 851 117 104 603 588 678 675 31 36 96 109 144 161 47 52
98 109 112 125 75 87 174 208 221 270 30 39 79 102 110 140 190 237 454 622
658 962 67 112 122 205 122 207 0 3 14 29 31 58 244 410 517 1010 726 1588
146 406 284 894 367 1300 164 795 237 1547 223 2290 -20 1037 -178 2002 -484
2950 -374 1163 -930 2223 -1651 3150 -302 387 -483 593 -816 928 -876 884
-1822 1553 -2941 2080 -1020 480 -2206 811 -3265 912 -63 6 -133 12 -155 15
-22 2 -107 9 -190 14 -82 6 -184 13 -225 16 -101 7 -814 18 -820 12z m845
-621 c39 -3 104 -8 145 -11 209 -15 321 -26 548 -55 45 -5 117 -14 160 -20
297 -36 905 -171 1315 -291 760 -222 1482 -535 2187 -947 917 -537 1748 -1240
2456 -2078 267 -316 413 -510 667 -889 181 -269 257 -393 416 -680 94 -168
321 -614 321 -630 0 -3 42 -97 90 -200 149 -321 376 -986 485 -1425 48 -193
126 -545 142 -640 8 -50 7 -49 16 -70 3 -8 8 -35 11 -60 3 -25 14 -106 26
-180 34 -224 56 -416 66 -580 2 -52 9 -104 14 -115 31 -70 33 -1414 3 -1495
-3 -8 -10 -58 -14 -110 -5 -52 -13 -138 -18 -190 -6 -52 -13 -120 -16 -150 -3
-30 -10 -77 -15 -105 -5 -27 -14 -88 -20 -135 -7 -47 -19 -123 -27 -170 -8
-47 -19 -110 -24 -140 -18 -106 -44 -232 -68 -335 -77 -316 -104 -426 -117
-465 -8 -25 -43 -142 -78 -260 -60 -202 -88 -288 -107 -335 -5 -11 -29 -78
-54 -150 -43 -124 -93 -255 -121 -320 -7 -16 -29 -68 -48 -115 -81 -198 -280
-613 -383 -800 -14 -25 -59 -108 -101 -185 -41 -77 -97 -174 -122 -215 -26
-41 -69 -112 -95 -157 -27 -46 -52 -83 -57 -83 -4 0 -8 -5 -8 -10 0 -14 -159
-251 -273 -410 -79 -108 -102 -139 -145 -195 -4 -5 -49 -64 -99 -131 -50 -66
-97 -127 -105 -135 -7 -8 -33 -39 -58 -69 -316 -388 -719 -800 -1150 -1176
-120 -105 -440 -361 -541 -434 -293 -211 -351 -251 -554 -382 -114 -74 -323
-200 -405 -245 -63 -35 -129 -71 -290 -158 -99 -54 -404 -204 -510 -252 -19
-9 -46 -22 -60 -28 -61 -31 -312 -135 -323 -135 -7 0 -17 -4 -23 -9 -5 -5 -61
-28 -124 -51 -63 -23 -137 -50 -165 -60 -160 -59 -288 -104 -345 -120 -36 -10
-135 -39 -220 -64 -85 -25 -177 -52 -205 -60 -83 -24 -369 -93 -550 -132 -206
-44 -251 -52 -460 -84 -33 -5 -89 -14 -125 -20 -73 -12 -250 -33 -450 -54
-492 -52 -1419 -54 -1840 -5 -47 5 -123 14 -170 19 -133 15 -242 29 -280 35
-19 4 -118 20 -220 36 -102 17 -214 36 -250 44 -310 67 -403 89 -550 127 -63
17 -131 34 -150 39 -43 10 -259 73 -320 92 -25 8 -72 23 -105 33 -33 9 -67 20
-75 24 -8 4 -40 15 -70 25 -30 9 -64 21 -75 25 -11 5 -40 16 -65 24 -25 8 -76
27 -115 41 -38 15 -87 31 -107 37 -21 6 -38 14 -38 18 0 4 -13 10 -29 13 -16
4 -49 15 -73 26 -24 10 -83 36 -133 57 -49 20 -97 40 -105 44 -8 4 -26 12 -40
18 -222 95 -640 306 -858 433 -45 27 -85 49 -87 49 -5 0 -155 91 -245 148 -36
23 -72 45 -80 49 -32 14 -283 183 -428 288 -85 60 -167 119 -182 130 -42 29
-133 100 -230 178 -47 38 -103 83 -124 100 -426 343 -966 887 -1357 1367 -87
107 -327 424 -390 515 -19 28 -37 52 -40 55 -28 24 -381 581 -453 715 -15 28
-31 57 -36 65 -60 102 -117 209 -241 450 -31 60 -139 290 -139 296 0 2 -15 36
-34 76 -63 135 -186 440 -236 588 -16 47 -43 123 -60 170 -17 47 -40 114 -51
150 -10 36 -28 92 -39 125 -51 158 -137 466 -169 611 -12 49 -32 139 -46 199
-14 61 -30 130 -35 155 -4 25 -16 83 -25 130 -9 47 -20 112 -26 145 -5 33 -14
85 -19 115 -15 78 -39 263 -60 465 -6 55 -15 136 -20 180 -46 422 -46 1242 -1
1720 14 148 30 291 40 365 5 36 14 103 19 150 6 47 18 123 27 170 8 47 22 123
31 170 92 497 201 915 366 1405 229 678 552 1358 951 2000 73 118 319 481 379
560 5 6 39 51 76 100 287 382 530 661 872 1005 261 262 345 341 521 493 670
573 1280 977 2054 1361 515 256 962 429 1585 615 395 117 935 235 1295 281
402 53 545 67 740 76 61 3 142 9 180 14 75 8 872 5 990 -4z"/>
<path d="M10193 15430 c-56 -34 -88 -124 -128 -365 -48 -294 -91 -437 -177
-603 -172 -330 -433 -561 -972 -861 -60 -33 -117 -63 -127 -66 -11 -4 -19 -9
-19 -13 0 -4 51 -20 113 -36 61 -16 188 -55 281 -87 l168 -58 47 19 c170 66
661 205 971 273 473 105 738 147 1190 188 348 32 1032 34 1273 4 32 -4 47 -2
47 6 0 38 -271 364 -448 539 -304 300 -596 510 -997 715 -167 85 -459 205
-605 248 -265 78 -443 117 -533 117 -34 0 -63 -7 -84 -20z"/>
<path d="M1963 13714 c3 -11 8 -50 12 -89 7 -82 47 -322 75 -460 94 -456 286
-1012 472 -1366 36 -68 80 -148 97 -177 17 -29 31 -55 31 -57 0 -2 22 -39 48
-82 27 -43 55 -89 63 -102 37 -64 251 -360 291 -402 7 -8 37 -44 67 -79 145
-175 473 -474 668 -608 l73 -49 -73 -48 c-167 -110 -309 -227 -468 -384 -251
-249 -434 -482 -618 -789 -242 -402 -470 -966 -584 -1442 -66 -276 -113 -512
-137 -700 -6 -47 -14 -96 -17 -109 -6 -23 -5 -24 38 -17 109 17 393 94 594
161 726 241 1342 619 1893 1159 148 144 341 348 423 446 26 30 78 91 115 136
116 135 150 176 204 244 82 104 110 139 190 233 41 49 86 104 100 121 21 28
57 70 140 166 287 331 637 680 920 917 609 509 1131 760 1660 798 343 24 682
-104 915 -347 124 -128 137 -146 350 -463 230 -342 318 -457 460 -600 195
-195 397 -332 660 -445 58 -25 180 -61 260 -75 123 -23 339 -16 445 15 361
104 591 400 655 841 8 59 15 144 15 190 0 113 -33 403 -65 569 -95 494 -105
651 -55 830 84 298 355 518 740 600 83 18 372 25 460 11 346 -54 611 -189 868
-442 205 -201 360 -429 586 -863 37 -71 85 -161 105 -200 21 -39 57 -105 79
-146 182 -342 359 -588 563 -785 170 -163 300 -254 504 -351 422 -200 956
-217 1546 -48 68 19 163 51 212 71 142 57 126 39 -76 -81 -100 -60 -308 -164
-421 -211 -677 -280 -1243 -296 -1804 -51 -478 209 -831 556 -1197 1176 -38
63 -82 138 -100 165 -17 28 -67 106 -110 175 -237 380 -463 586 -714 651 -94
25 -258 27 -346 4 -195 -50 -383 -199 -464 -368 -56 -115 -73 -196 -72 -347 0
-146 13 -224 87 -535 126 -526 149 -683 141 -935 -11 -356 -111 -591 -322
-756 -155 -122 -342 -178 -591 -176 -391 3 -852 221 -1204 572 -149 148 -256
281 -510 635 -213 296 -277 372 -430 511 -222 203 -390 297 -650 365 -274 71
-584 40 -847 -87 -146 -70 -381 -235 -528 -370 -180 -166 -308 -287 -400 -375
-60 -59 -144 -138 -185 -175 -108 -99 -271 -263 -304 -307 -28 -37 -28 -38
-10 -58 17 -19 155 -124 299 -229 28 -20 76 -56 109 -79 138 -102 587 -406
699 -474 638 -388 1192 -649 1837 -868 676 -230 1335 -364 2060 -421 246 -19
801 -14 1095 9 132 11 241 19 243 18 8 -6 -454 -168 -599 -210 -392 -114 -583
-341 -639 -760 -10 -71 -32 -876 -25 -883 11 -11 451 166 610 246 194 97 372
208 570 355 162 121 235 185 405 356 159 161 203 209 317 351 127 157 299 420
446 680 l25 45 134 33 c268 68 702 200 873 267 456 177 635 255 950 413 728
364 1332 761 1875 1236 176 153 511 492 620 626 25 30 53 64 63 75 10 11 29
43 44 73 40 82 19 158 -53 188 -40 17 28 27 -886 -131 -141 -25 -267 -45 -280
-45 l-23 0 25 20 c14 11 93 59 175 107 187 108 315 183 520 304 88 52 233 137
323 189 90 52 172 103 182 113 25 22 43 92 37 138 -6 47 -38 93 -166 242 -195
225 -507 524 -770 737 -159 129 -495 376 -676 497 -60 40 -120 80 -132 89
-119 87 -608 362 -929 522 -1450 725 -3116 990 -4754 756 -991 -141 -1994
-463 -2955 -947 -611 -307 -1054 -582 -1573 -976 -489 -370 -611 -441 -765
-441 -97 0 -161 20 -249 80 -95 63 -185 150 -292 280 -168 203 -202 244 -270
324 -37 45 -76 90 -85 101 -220 274 -649 699 -863 858 -20 14 -42 32 -50 39
-28 27 -197 149 -293 210 -118 76 -320 198 -329 198 -3 0 -47 23 -97 51 -168
93 -506 233 -744 307 -125 39 -449 124 -529 138 -34 6 -38 5 -33 -12z m14601
-2260 c11 -4 16 -20 17 -53 1 -25 4 -57 8 -70 9 -34 31 -39 31 -7 0 56 40 117
71 109 24 -7 77 -66 90 -102 6 -14 15 -48 20 -74 5 -26 16 -55 24 -63 39 -39
5 -163 -61 -224 -62 -57 -116 -80 -192 -80 -77 0 -137 25 -193 81 -58 58 -79
109 -79 196 0 138 72 238 203 279 23 7 43 13 44 13 1 1 8 -2 17 -5z"/>
<path d="M16620 11181 c0 -15 31 -42 41 -35 12 7 3 21 -22 34 -12 7 -19 7 -19
1z"/>
<path d="M7165 8019 c-87 -29 -256 -66 -363 -81 -50 -7 -92 -15 -92 -18 0 -3
25 -25 55 -49 30 -24 116 -107 192 -185 216 -220 332 -411 429 -701 40 -122
96 -372 111 -493 3 -32 12 -56 20 -59 15 -6 73 4 253 43 376 82 719 227 1024
432 118 79 266 196 266 210 0 4 -39 23 -87 42 -553 214 -1122 504 -1628 829
-44 28 -89 51 -100 50 -11 0 -47 -9 -80 -20z"/>
</g>
</svg>
