<svg xmlns="http://www.w3.org/2000/svg" viewBox="0 0 24 24" width="24" height="24">
  <path fill="currentColor" d="M0 0v24h24V0H0zm3.723 3.111h5v1.834h-1.39v6.277h1.39v1.834h-5v-1.834h1.444V4.945H3.723v-1.834zm11.055 0H17v6.5c0 .612-.055 1.111-.222 1.556-.167.444-.39.777-.723 1.11-.277.279-.666.557-1.11.668a3.933 3.933 0 0 1-1.445.278c-.778 0-1.444-.167-1.944-.445a4.81 4.81 0 0 1-1.279-1.056l1.39-1.555c.277.334.555.555.833.722.277.167.611.278.945.278.389 0 .721-.111 1-.389.221-.278.332-.667.332-1.278V4.945h-1.222V3.111h.166zm-3.778 14.445h5.556v1.834h-5.556v-1.834zm5-8.5h-6.111v1.834h6.111V9.056z"/>
</svg> 