<svg xmlns="http://www.w3.org/2000/svg" viewBox="0 0 24 24" width="24" height="24">
  <path fill="currentColor" d="M20.581 19.049c-.55-.446-.336-1.431-.907-1.917.553-3.365-.997-6.331-2.845-8.232-1.551-1.595-1.051-3.147-1.051-4.828 0-2.405-1.753-4.072-3.814-4.072-2.061 0-3.814 1.664-3.814 4.072 0 1.68.459 3.233-1.094 4.828-1.85 1.902-3.398 4.867-2.845 8.232-.571.486-.358 1.47-.907 1.917-.595.488-1.304.627-1.304 1.259 0 .631.754.824 1.803.824.527 0 2.039-.022 2.549-.675 1.106-.56 2.333-1.626 3.686-1.562 1.461-.076 2.613.818 3.686 1.562.511.653 2.022.675 2.549.675 1.048 0 1.803-.193 1.803-.824 0-.631-.708-.771-1.304-1.259zm-10.028-9.475c-.458-.092-.755-.402-.755-.402-.051-.146-.356-.395-.356-.69 0-.292.28-.488.28-.488.458 0 .755.244.755.585 0 .342-.204.911.076.995zm1.005-2.138c-.279 0-.503-.224-.503-.503s.224-.503.503-.503.503.224.503.503-.224.503-.503.503zm1.005 2.138c.279-.085.076-.653.076-.995s.297-.585.755-.585c0 0 .28.195.28.488 0 .293-.306.543-.356.689 0 0-.297.311-.755.403z"/>
</svg> 