<svg xmlns="http://www.w3.org/2000/svg" viewBox="0 0 24 24" width="24" height="24">
  <path fill="currentColor" d="M12.606 11.658c0-1.435-1.167-2.602-2.602-2.602-1.435 0-2.602 1.167-2.602 2.602 0 1.435 1.167 2.602 2.602 2.602 1.435 0 2.602-1.167 2.602-2.602zm2.802 6.406c-.68.681-1.411 1.2-2.178 1.543-.766.344-1.558.514-2.377.514a5.45 5.45 0 0 1-2.192-.455c-.704-.304-1.369-.762-1.993-1.386l-.815-.815.815-.815c.624-.624 1.289-1.082 1.993-1.386.704-.304 1.434-.455 2.192-.455.943 0 1.822.212 2.642.64.819.426 1.543 1.054 2.177 1.885l.815 1.073-.815.815c-.624.624-1.289 1.082-1.993 1.386a5.45 5.45 0 0 1-2.192.455c-.819 0-1.611-.17-2.377-.514-.766-.343-1.497-.862-2.178-1.543l-.815-.815.815-.815c.624-.624 1.289-1.082 1.993-1.386.704-.304 1.434-.455 2.192-.455.943 0 1.822.212 2.642.64.819.426 1.543 1.054 2.177 1.885l.815 1.073-.815.815c-.624.624-1.289 1.082-1.993 1.386a5.45 5.45 0 0 1-2.192.455c-.819 0-1.611-.17-2.377-.514-.766-.343-1.497-.862-2.178-1.543l-.815-.815.815-.815c.624-.624 1.289-1.082 1.993-1.386.704-.304 1.434-.455 2.192-.455.943 0 1.822.212 2.642.64.819.426 1.543 1.054 2.177 1.885l.815 1.073-.815.815z"/>
</svg> 